<?xml version="1.0" standalone="no"?>
<!DOCTYPE svg PUBLIC "-//W3C//DTD SVG 20010904//EN"
 "http://www.w3.org/TR/2001/REC-SVG-20010904/DTD/svg10.dtd">
<svg version="1.0" xmlns="http://www.w3.org/2000/svg"
 width="600.000000pt" height="480.000000pt" viewBox="0 0 600.000000 480.000000"
 preserveAspectRatio="xMidYMid meet">

<g transform="translate(0.000000,480.000000) scale(0.100000,-0.100000)"
fill="#000000" stroke="none">
<path d="M2792 3165 c-7 -14 -12 -39 -12 -55 0 -16 -11 -41 -24 -57 -48 -57
-96 -203 -67 -203 10 0 77 144 87 186 4 16 17 47 30 70 27 45 31 84 11 84 -8
0 -19 -11 -25 -25z"/>
<path d="M2695 3130 c-3 -5 -1 -10 4 -10 6 0 11 5 11 10 0 6 -2 10 -4 10 -3 0
-8 -4 -11 -10z"/>
<path d="M3297 3072 l-6 -32 -38 21 -38 21 24 -21 c31 -28 71 -38 82 -20 12
19 11 22 -4 44 -13 17 -14 16 -20 -13z"/>
<path d="M2576 3029 c-27 -21 -36 -59 -13 -59 7 0 31 18 52 40 39 39 39 40 13
40 -14 0 -37 -9 -52 -21z"/>
<path d="M3260 2983 c0 -5 -23 -35 -51 -66 -40 -45 -47 -58 -35 -63 9 -3 22
-4 30 -1 23 9 88 95 84 113 -3 18 -28 33 -28 17z"/>
<path d="M3449 2931 c14 -27 27 -48 29 -46 5 5 -36 83 -47 89 -5 3 3 -16 18
-43z"/>
<path d="M2485 2951 c4 -7 -9 -42 -28 -79 -38 -72 -73 -179 -62 -190 14 -14
38 17 55 68 9 30 27 74 39 98 24 47 25 102 2 110 -9 3 -11 0 -6 -7z"/>
<path d="M2610 2934 c0 -9 5 -14 12 -12 18 6 21 28 4 28 -9 0 -16 -7 -16 -16z"/>
<path d="M3370 2906 c0 -2 8 -10 18 -17 15 -13 16 -12 3 4 -13 16 -21 21 -21
13z"/>
<path d="M3104 2858 c20 -31 13 -38 -41 -38 -32 0 -43 -4 -43 -15 0 -18 90
-21 107 -4 13 13 -6 61 -28 75 -6 3 -4 -5 5 -18z"/>
<path d="M2596 2848 c-3 -13 -3 -46 0 -73 4 -35 1 -62 -10 -89 l-16 -39 -50 5
c-54 5 -66 -6 -24 -22 43 -17 89 -12 110 11 26 28 34 198 11 217 -12 10 -16 8
-21 -10z"/>
<path d="M3445 2813 c14 -21 25 -41 25 -45 0 -4 -38 -39 -85 -79 -82 -70 -94
-89 -56 -89 23 0 161 126 161 147 0 14 -57 103 -66 103 -3 0 7 -17 21 -37z"/>
<path d="M3233 2808 c2 -9 24 -13 62 -13 38 0 60 4 63 13 3 9 -14 12 -63 12
-49 0 -66 -3 -62 -12z"/>
<path d="M3520 2628 c0 -31 -5 -79 -11 -107 -9 -45 -15 -53 -70 -89 -53 -34
-58 -40 -44 -52 14 -11 21 -11 48 5 52 29 86 67 97 104 15 55 12 154 -5 177
-13 17 -14 14 -15 -38z"/>
<path d="M2380 2535 c0 -73 3 -96 13 -93 20 7 22 161 2 178 -13 11 -15 2 -15
-85z"/>
<path d="M2635 2524 c8 -32 21 -78 29 -101 8 -23 12 -44 8 -47 -4 -2 -51 -7
-105 -11 -81 -6 -96 -10 -86 -21 20 -25 206 -14 216 13 7 18 -44 194 -62 212
-12 12 -12 6 0 -45z"/>
<path d="M2846 2528 c-13 -29 -29 -70 -37 -91 -10 -29 -20 -40 -41 -44 -23 -4
-26 -8 -17 -19 15 -18 53 -18 68 -1 16 20 71 157 71 178 0 39 -22 28 -44 -23z"/>
<path d="M3217 2545 c-15 -19 -25 -35 -21 -35 17 0 74 43 74 56 0 25 -24 15
-53 -21z"/>
<path d="M3290 2495 c0 -5 8 -37 19 -71 l18 -61 -106 -52 c-94 -47 -103 -54
-87 -66 15 -11 26 -10 73 11 147 66 153 72 128 157 -14 50 -44 105 -45 82z"/>
<path d="M3043 2329 c-8 -8 -8 -22 2 -50 16 -43 18 -40 -51 -63 -36 -12 -55
-24 -63 -43 -9 -20 -9 -24 1 -21 7 3 38 13 68 23 30 10 60 22 66 27 10 7 12
59 5 131 -1 10 -15 9 -28 -4z"/>
<path d="M3426 2315 c-17 -26 -14 -45 6 -45 15 0 37 31 38 53 0 25 -25 21 -44
-8z"/>
<path d="M2721 2272 c8 -23 7 -38 -5 -67 l-16 -38 -75 6 c-41 3 -75 3 -75 1 0
-13 74 -34 117 -34 57 0 68 6 83 44 12 32 -1 86 -25 106 -13 10 -13 8 -4 -18z"/>
<path d="M3350 2246 c0 -27 -60 -85 -122 -117 -44 -23 -55 -37 -33 -45 22 -9
70 13 126 58 50 39 66 71 54 107 -9 29 -25 26 -25 -3z"/>
<path d="M3105 2127 c9 -21 13 -42 10 -47 -8 -12 -98 -30 -155 -30 -53 0 -67
-15 -24 -26 35 -9 158 2 185 16 18 10 20 18 15 48 -3 20 -15 45 -26 56 l-21
21 16 -38z"/>
</g>
</svg>
